#N canvas 922 197 761 667 10;
#X obj 209 -322 until;
#X obj 387 -297 pack s f;
#X obj 387 -349 t b f;
#X obj 209 -277 f;
#X obj 243 -277 + 1;
#X obj 209 -221 s \$1-value;
#X obj 387 -375 r \$1-value;
#X obj 387 -271 route list;
#X text 460 -202 store the list;
#X obj 454 -220 textfile;
#X msg 516 -247 rewind;
#X obj 386 -322 symbol add2;
#X obj 499 -300 bng 15 250 50 0 empty empty THEN_Print_the_list 18
7 0 8 -24198 -1 -1;
#X msg 315 -302 clear;
#X obj 481 -271 t b b;
#X msg 260 -303 0;
#X obj 209 -349 t f b;
#X text 490 -396 add2 is a message to textfile to add some stuff to
a message;
#X obj 209 -380 arraysize \$1;
#X obj 209 -249 tabread \$1;
#X obj 376 -92 outlet;
#X obj 57 -522 inlet;
#X connect 0 0 3 0;
#X connect 1 0 7 0;
#X connect 2 0 11 0;
#X connect 2 1 1 1;
#X connect 3 0 4 0;
#X connect 3 0 19 0;
#X connect 4 0 3 1;
#X connect 6 0 2 0;
#X connect 7 0 9 0;
#X connect 9 0 20 0;
#X connect 10 0 9 0;
#X connect 11 0 1 0;
#X connect 12 0 14 0;
#X connect 13 0 9 0;
#X connect 14 0 9 0;
#X connect 14 1 10 0;
#X connect 15 0 3 1;
#X connect 16 0 0 0;
#X connect 16 1 15 0;
#X connect 16 1 13 0;
#X connect 18 0 16 0;
#X connect 19 0 5 0;
#X connect 21 0 18 0;
#X connect 21 0 14 0;
