#N canvas 0 82 1920 998 10;
#X obj 92 123 cnv 15 100 60 empty empty empty 20 12 0 14 -233017 -66577
0;
#X obj 120 128 hsl 32 15 0 127 0 0 empty empty empty -2 -8 0 10 -262144
-1 -1 0 1;
#X obj 122 157 tgl 15 0 empty empty empty 17 7 0 10 -262144 -1 -1 0
127;
#X obj 122 179 tgl 15 0 empty empty empty 17 7 0 10 -262144 -1 -1 0
127;
#X obj 164 128 hsl 32 15 0 127 0 0 empty empty empty -2 -8 0 10 -262144
-1 -1 0 1;
#X obj 166 157 tgl 15 0 empty empty empty 17 7 0 10 -262144 -1 -1 0
127;
#X obj 166 179 tgl 15 0 empty empty empty 17 7 0 10 -262144 -1 -1 0
1;
#X obj 206 128 hsl 32 15 0 127 0 0 empty empty empty -2 -8 0 10 -262144
-1 -1 0 1;
#X obj 208 157 tgl 15 0 empty empty empty 17 7 0 10 -262144 -1 -1 0
1;
#X obj 208 179 tgl 15 0 empty empty empty 17 7 0 10 -262144 -1 -1 0
1;
#X obj 250 128 hsl 32 15 0 127 0 0 empty empty empty -2 -8 0 10 -262144
-1 -1 0 1;
#X obj 252 157 tgl 15 0 empty empty empty 17 7 0 10 -262144 -1 -1 0
1;
#X obj 252 179 tgl 15 0 empty empty empty 17 7 0 10 -262144 -1 -1 0
1;
#X obj 291 128 hsl 32 15 0 127 0 0 empty empty empty -2 -8 0 10 -262144
-1 -1 0 1;
#X obj 293 157 tgl 15 0 empty empty empty 17 7 0 10 -262144 -1 -1 0
1;
#X obj 293 179 tgl 15 0 empty empty empty 17 7 0 10 -262144 -1 -1 0
1;
#X obj 335 128 hsl 32 15 0 127 0 0 empty empty empty -2 -8 0 10 -262144
-1 -1 0 1;
#X obj 337 157 tgl 15 0 empty empty empty 17 7 0 10 -262144 -1 -1 0
1;
#X obj 337 179 tgl 15 0 empty empty empty 17 7 0 10 -262144 -1 -1 0
1;
#X obj 377 128 hsl 32 15 0 127 0 0 empty empty empty -2 -8 0 10 -262144
-1 -1 0 1;
#X obj 379 157 tgl 15 0 empty empty empty 17 7 0 10 -262144 -1 -1 0
1;
#X obj 379 179 tgl 15 0 empty empty empty 17 7 0 10 -262144 -1 -1 0
1;
#X obj 421 128 hsl 32 15 0 127 0 0 empty empty empty -2 -8 0 10 -262144
-1 -1 0 1;
#X obj 423 157 tgl 15 0 empty empty empty 17 7 0 10 -262144 -1 -1 0
127;
#X obj 423 179 tgl 15 0 empty empty empty 17 7 0 10 -262144 -1 -1 0
127;
#X obj 117 201 hsl 32 15 0 127 0 0 empty empty empty -2 -8 0 10 -262144
-1 -1 0 1;
#X obj 161 201 hsl 32 15 0 127 0 0 empty empty empty -2 -8 0 10 -262144
-1 -1 0 1;
#X obj 203 201 hsl 32 15 0 127 0 0 empty empty empty -2 -8 0 10 -262144
-1 -1 0 1;
#X obj 247 201 hsl 32 15 0 127 0 0 empty empty empty -2 -8 0 10 -262144
-1 -1 0 1;
#X obj 288 201 hsl 32 15 0 127 0 0 empty empty empty -2 -8 0 10 -262144
-1 -1 0 1;
#X obj 332 201 hsl 32 15 0 127 0 0 empty empty empty -2 -8 0 10 -262144
-1 -1 0 1;
#X obj 374 201 hsl 32 15 0 127 0 0 empty empty empty -2 -8 0 10 -262144
-1 -1 0 1;
#X obj 422 201 hsl 32 15 0 127 0 0 empty empty empty -2 -8 0 10 -262144
-1 -1 0 1;
#X obj 117 223 hsl 32 15 0 127 0 0 empty empty empty -2 -8 0 10 -262144
-1 -1 0 1;
#X obj 161 223 hsl 32 15 0 127 0 0 empty empty empty -2 -8 0 10 -262144
-1 -1 0 1;
#X obj 203 223 hsl 32 15 0 127 0 0 empty empty empty -2 -8 0 10 -262144
-1 -1 0 1;
#X obj 247 223 hsl 32 15 0 127 0 0 empty empty empty -2 -8 0 10 -262144
-1 -1 0 1;
#X obj 288 223 hsl 32 15 0 127 0 0 empty empty empty -2 -8 0 10 -262144
-1 -1 0 1;
#X obj 332 223 hsl 32 15 0 127 0 0 empty empty empty -2 -8 0 10 -262144
-1 -1 0 1;
#X obj 374 223 hsl 32 15 0 127 0 0 empty empty empty -2 -8 0 10 -262144
-1 -1 0 1;
#X obj 421 224 hsl 32 15 0 127 0 0 empty empty empty -2 -8 0 10 -262144
-1 -1 0 1;
#X obj 116 245 hsl 32 15 0 127 0 0 empty empty empty -2 -8 0 10 -262144
-1 -1 0 1;
#X obj 160 245 hsl 32 15 0 127 0 0 empty empty empty -2 -8 0 10 -262144
-1 -1 0 1;
#X obj 202 245 hsl 32 15 0 127 0 0 empty empty empty -2 -8 0 10 -262144
-1 -1 0 1;
#X obj 246 245 hsl 32 15 0 127 0 0 empty empty empty -2 -8 0 10 -262144
-1 -1 0 1;
#X obj 287 245 hsl 32 15 0 127 0 0 empty empty empty -2 -8 0 10 -262144
-1 -1 0 1;
#X obj 331 245 hsl 32 15 0 127 0 0 empty empty empty -2 -8 0 10 -262144
-1 -1 0 1;
#X obj 373 245 hsl 32 15 0 127 0 0 empty empty empty -2 -8 0 10 -262144
-1 -1 0 1;
#X obj 421 246 hsl 32 15 0 127 0 0 empty empty empty -2 -8 0 10 -262144
-1 -1 0 1;
#X obj 101 15 ctlin 1;
#X obj 153 15 ctlin 2;
#X obj 132 621 outlet;
#X obj 175 621 outlet;
#X obj 219 621 outlet;
#X obj 263 621 outlet;
#X obj 311 621 outlet;
#X obj 354 621 outlet;
#X obj 398 621 outlet;
#X obj 442 621 outlet;
#X obj 205 14 ctlin 3;
#X obj 256 16 ctlin 4;
#X obj 490 642 outlet;
#X obj 533 642 outlet;
#X obj 577 642 outlet;
#X obj 621 642 outlet;
#X obj 669 642 outlet;
#X obj 712 642 outlet;
#X obj 756 642 outlet;
#X obj 800 642 outlet;
#X obj 847 667 outlet;
#X obj 890 667 outlet;
#X obj 934 667 outlet;
#X obj 978 667 outlet;
#X obj 1026 667 outlet;
#X obj 1069 667 outlet;
#X obj 1113 667 outlet;
#X obj 1157 667 outlet;
#X obj 305 16 ctlin 5;
#X obj 355 15 ctlin 6;
#X obj 404 17 ctlin 7;
#X obj 453 16 ctlin 8;
#X obj 102 49 ctlin 65;
#X obj 156 49 ctlin 66;
#X obj 206 48 ctlin 67;
#X obj 257 50 ctlin 68;
#X obj 306 50 ctlin 69;
#X obj 356 49 ctlin 70;
#X obj 405 51 ctlin 71;
#X obj 454 50 ctlin 72;
#X obj 97 75 ctlin 73;
#X obj 151 75 ctlin 74;
#X obj 201 74 ctlin 75;
#X obj 252 76 ctlin 76;
#X obj 301 76 ctlin 77;
#X obj 351 75 ctlin 78;
#X obj 400 77 ctlin 79;
#X obj 449 76 ctlin 80;
#X obj 1218 695 outlet;
#X obj 1261 695 outlet;
#X obj 1305 695 outlet;
#X obj 1349 695 outlet;
#X obj 1397 695 outlet;
#X obj 1440 695 outlet;
#X obj 1486 693 outlet;
#X obj 1528 695 outlet;
#X obj 1579 721 outlet;
#X obj 1622 721 outlet;
#X obj 1666 721 outlet;
#X obj 1710 721 outlet;
#X obj 1758 721 outlet;
#X obj 1801 721 outlet;
#X obj 1845 721 outlet;
#X obj 1889 721 outlet;
#X obj 1943 746 outlet;
#X obj 1986 746 outlet;
#X obj 2030 746 outlet;
#X obj 2074 746 outlet;
#X obj 2122 746 outlet;
#X obj 2165 746 outlet;
#X obj 2209 746 outlet;
#X obj 2253 746 outlet;
#X obj 809 66 ctlin 81;
#X obj 942 57 ctlin 82;
#X obj 1022 53 ctlin 83;
#X obj 1089 67 ctlin 84;
#X obj 1154 73 ctlin 85;
#X obj 1196 67 ctlin 86;
#X obj 1248 73 ctlin 87;
#X obj 1309 75 ctlin 88;
#X obj 1021 187 ctlin 91;
#X obj 1082 185 ctlin 92;
#X obj 1127 182 ctlin 93;
#X obj 1176 187 ctlin 94;
#X obj 1225 188 ctlin 95;
#X obj 1275 187 ctlin 96;
#X obj 915 187 ctlin 89;
#X obj 969 187 ctlin 90;
#X obj 925 302 ctlin 97;
#X obj 1084 303 ctlin 100;
#X obj 1150 306 ctlin 101;
#X obj 1196 305 ctlin 102;
#X obj 1257 301 ctlin 103;
#X obj 1304 308 ctlin 104;
#X obj 979 302 ctlin 98;
#X obj 1033 304 ctlin 99;
#X text 177 280 |;
#X text 268 279 |;
#X text 352 279 |;
#X text 440 281 |;
#X text 525 278 |;
#X text 616 277 |;
#X text 118 278 First Row;
#X text 201 280 Toggles1;
#X text 286 282 Toggles2;
#X text 377 280 Row 2;
#X text 465 278 Row 3;
#X text 541 279 Row 4;
#X text 248 101 Behringer BCR-2000 Interface;
#X connect 1 0 51 0;
#X connect 2 0 61 0;
#X connect 3 0 69 0;
#X connect 4 0 52 0;
#X connect 5 0 62 0;
#X connect 6 0 70 0;
#X connect 7 0 53 0;
#X connect 8 0 63 0;
#X connect 9 0 71 0;
#X connect 10 0 54 0;
#X connect 11 0 64 0;
#X connect 12 0 72 0;
#X connect 13 0 55 0;
#X connect 14 0 65 0;
#X connect 15 0 73 0;
#X connect 16 0 56 0;
#X connect 17 0 66 0;
#X connect 18 0 74 0;
#X connect 19 0 57 0;
#X connect 20 0 67 0;
#X connect 21 0 75 0;
#X connect 22 0 58 0;
#X connect 23 0 68 0;
#X connect 24 0 76 0;
#X connect 25 0 97 0;
#X connect 26 0 98 0;
#X connect 27 0 99 0;
#X connect 28 0 100 0;
#X connect 29 0 101 0;
#X connect 30 0 102 0;
#X connect 31 0 103 0;
#X connect 32 0 104 0;
#X connect 33 0 105 0;
#X connect 34 0 106 0;
#X connect 35 0 107 0;
#X connect 36 0 108 0;
#X connect 37 0 109 0;
#X connect 38 0 110 0;
#X connect 39 0 111 0;
#X connect 40 0 112 0;
#X connect 41 0 113 0;
#X connect 42 0 114 0;
#X connect 43 0 115 0;
#X connect 44 0 116 0;
#X connect 45 0 117 0;
#X connect 46 0 118 0;
#X connect 47 0 119 0;
#X connect 48 0 120 0;
#X connect 49 0 1 0;
#X connect 50 0 4 0;
#X connect 59 0 7 0;
#X connect 60 0 10 0;
#X connect 77 0 13 0;
#X connect 78 0 16 0;
#X connect 79 0 19 0;
#X connect 80 0 22 0;
#X connect 81 0 2 0;
#X connect 82 0 5 0;
#X connect 83 0 8 0;
#X connect 84 0 11 0;
#X connect 85 0 14 0;
#X connect 86 0 17 0;
#X connect 87 0 20 0;
#X connect 88 0 23 0;
#X connect 89 0 3 0;
#X connect 90 0 6 0;
#X connect 91 0 9 0;
#X connect 92 0 12 0;
#X connect 93 0 15 0;
#X connect 94 0 18 0;
#X connect 95 0 21 0;
#X connect 96 0 24 0;
#X connect 121 0 25 0;
#X connect 122 0 26 0;
#X connect 123 0 27 0;
#X connect 124 0 28 0;
#X connect 125 0 29 0;
#X connect 126 0 30 0;
#X connect 127 0 31 0;
#X connect 128 0 32 0;
#X connect 129 0 35 0;
#X connect 130 0 36 0;
#X connect 131 0 37 0;
#X connect 132 0 37 0;
#X connect 133 0 39 0;
#X connect 134 0 40 0;
#X connect 135 0 33 0;
#X connect 136 0 34 0;
#X connect 137 0 41 0;
#X connect 138 0 44 0;
#X connect 139 0 45 0;
#X connect 140 0 46 0;
#X connect 141 0 47 0;
#X connect 142 0 48 0;
#X connect 143 0 42 0;
#X connect 144 0 43 0;
#X coords 0 -1 1 1 512 200 1 100 100;
