#N canvas 783 199 643 633 10;
#X obj 240 24 adc~;
#X obj 220 116 rms~;
#X obj 267 121 rms~;
#X floatatom 261 254 16 0 0 0 - - -;
#X obj 217 148 * -1;
#X obj 365 37 vsl 15 128 0 2 0 0 empty empty empty 0 -9 0 10 -262144
-1 -1 12700 1;
#X obj 205 214 +;
#X obj 209 83 *~;
#X obj 267 68 *~;
#X obj 444 199 max;
#X obj 442 228 + 0;
#X floatatom 404 262 16 0 0 0 - - -;
#X obj 512 208 min;
#X obj 515 233 + 0;
#X floatatom 519 270 16 0 0 0 - - -;
#X obj 224 339 -;
#X obj 202 297 -;
#X obj 202 381 *;
#X floatatom 221 460 16 0 0 0 - - -;
#X obj 163 426 *;
#X obj 133 340 abs;
#X obj 395 410 osc~;
#X obj 393 454 dac~;
#X obj 324 375 * 1000;
#X floatatom 435 324 16 0 0 0 - - -;
#X obj 476 358 * 44;
#X obj 127 368 > 0.0001;
#X obj 142 -70 fft~;
#X obj 303 -44 *~;
#X obj 108 24 vsl 15 128 0 2 0 0 empty empty empty 0 -9 0 10 -262144
-1 -1 0 1;
#X connect 0 0 7 0;
#X connect 0 1 8 0;
#X connect 1 0 4 0;
#X connect 2 0 6 1;
#X connect 3 0 20 0;
#X connect 4 0 6 0;
#X connect 5 0 8 1;
#X connect 6 0 3 0;
#X connect 6 0 9 0;
#X connect 6 0 12 0;
#X connect 6 0 16 0;
#X connect 7 0 1 0;
#X connect 8 0 2 0;
#X connect 9 0 10 0;
#X connect 10 0 9 1;
#X connect 10 0 11 0;
#X connect 11 0 15 0;
#X connect 12 0 13 0;
#X connect 13 0 14 0;
#X connect 13 0 12 1;
#X connect 14 0 15 1;
#X connect 14 0 16 1;
#X connect 15 0 17 1;
#X connect 16 0 17 0;
#X connect 17 0 19 0;
#X connect 19 0 18 0;
#X connect 19 0 23 0;
#X connect 20 0 26 0;
#X connect 21 0 22 0;
#X connect 23 0 24 0;
#X connect 24 0 25 0;
#X connect 25 0 21 0;
#X connect 26 0 19 1;
#X connect 29 0 7 1;
