#N canvas 583 195 952 583 10;
#X obj 306 412 dac~;
#X obj 69 3 ctlin 1 1;
#X floatatom 58 87 5 0 0 0 - - -;
#X obj 55 160 osc~;
#X obj 57 116 mtof;
#X floatatom 127 101 5 0 0 0 - - -;
#X obj 127 160 osc~;
#X obj 127 130 mtof;
#X obj 141 3 ctlin 2 1;
#X obj 145 231 osc~;
#X obj 176 185 snapshot~;
#X obj 75 206 *~;
#X floatatom 245 101 5 0 0 0 - - -;
#X obj 245 160 osc~;
#X obj 245 130 mtof;
#X floatatom 317 101 5 0 0 0 - - -;
#X obj 317 160 osc~;
#X obj 317 130 mtof;
#X obj 346 206 osc~;
#X obj 368 187 snapshot~;
#X obj 265 187 *~;
#X obj 259 3 ctlin 3 1;
#X obj 331 3 ctlin 4 1;
#X floatatom 437 101 5 0 0 0 - - -;
#X obj 437 160 osc~;
#X obj 437 130 mtof;
#X floatatom 509 101 5 0 0 0 - - -;
#X obj 509 160 osc~;
#X obj 509 130 mtof;
#X obj 538 206 osc~;
#X obj 560 187 snapshot~;
#X obj 457 187 *~;
#X floatatom 627 101 5 0 0 0 - - -;
#X obj 627 160 osc~;
#X obj 627 130 mtof;
#X floatatom 699 101 5 0 0 0 - - -;
#X obj 699 160 osc~;
#X obj 699 130 mtof;
#X obj 728 187 osc~;
#X obj 750 161 snapshot~;
#X obj 647 187 *~;
#X obj 451 3 ctlin 5 1;
#X obj 523 3 ctlin 6 1;
#X obj 641 3 ctlin 7 1;
#X obj 713 3 ctlin 8 1;
#X obj 11 177 line~;
#X floatatom 39 287 5 0 0 0 - - -;
#X obj 10 137 pack 0 1000;
#X connect 1 0 2 0;
#X connect 2 0 4 0;
#X connect 3 0 11 0;
#X connect 4 0 47 0;
#X connect 5 0 7 0;
#X connect 6 0 10 0;
#X connect 7 0 6 0;
#X connect 7 0 11 1;
#X connect 8 0 5 0;
#X connect 9 0 0 0;
#X connect 9 0 0 1;
#X connect 10 0 9 1;
#X connect 11 0 9 0;
#X connect 12 0 14 0;
#X connect 13 0 20 0;
#X connect 14 0 13 0;
#X connect 15 0 17 0;
#X connect 16 0 19 0;
#X connect 17 0 16 0;
#X connect 17 0 20 1;
#X connect 18 0 0 0;
#X connect 19 0 18 1;
#X connect 20 0 18 0;
#X connect 21 0 12 0;
#X connect 22 0 15 0;
#X connect 23 0 25 0;
#X connect 24 0 31 0;
#X connect 25 0 24 0;
#X connect 26 0 28 0;
#X connect 27 0 30 0;
#X connect 28 0 27 0;
#X connect 28 0 31 1;
#X connect 29 0 0 1;
#X connect 30 0 29 1;
#X connect 31 0 29 0;
#X connect 32 0 34 0;
#X connect 33 0 40 0;
#X connect 34 0 33 0;
#X connect 35 0 37 0;
#X connect 36 0 39 0;
#X connect 37 0 36 0;
#X connect 37 0 40 1;
#X connect 38 0 0 0;
#X connect 39 0 38 1;
#X connect 40 0 38 0;
#X connect 41 0 23 0;
#X connect 42 0 26 0;
#X connect 43 0 32 0;
#X connect 44 0 35 0;
#X connect 45 0 3 0;
#X connect 47 0 45 0;
