#N canvas 0 83 450 300 10;
#X obj 130 77 inlet;
#X obj 130 196 outlet;
#X obj 200 136 f \$1;
#X obj 250 139 f \$2;
#X obj 212 163 -;
#X obj 130 141 *;
#X obj 130 112 / 127;
#X obj 130 170 +;
#X obj 225 101 bng 15 250 50 0 empty empty empty 17 7 0 10 -262144
-1 -1;
#X connect 0 0 6 0;
#X connect 0 0 8 0;
#X connect 2 0 4 1;
#X connect 2 0 7 1;
#X connect 3 0 4 0;
#X connect 4 0 5 1;
#X connect 5 0 7 0;
#X connect 6 0 5 0;
#X connect 7 0 1 0;
#X connect 8 0 2 0;
#X connect 8 0 3 0;
