#N canvas 843 381 450 300 10;
#X floatatom 71 51 5 0 0 0 - - -;
#X obj 78 88 mtof;
#X floatatom 57 171 5 0 0 0 - - -;
#X obj 128 70 + 1;
#X obj 126 96 mtof;
#X floatatom 125 144 5 0 0 0 - - -;
#X obj 102 200 -;
#X floatatom 110 243 5 0 0 0 - - -;
#X connect 0 0 1 0;
#X connect 0 0 3 0;
#X connect 1 0 2 0;
#X connect 2 0 6 1;
#X connect 3 0 4 0;
#X connect 4 0 5 0;
#X connect 5 0 6 0;
#X connect 6 0 7 0;
