#N canvas 88 460 1082 508 10;
#X obj 133 34 inlet;
#X floatatom 133 62 0 0 0 0 - - -;
#X text 137 5 Size;
#X obj 133 152 until;
#X obj 133 198 f;
#X obj 192 183 + 1;
#X msg 192 137 0;
#X obj 133 106 t f b;
#X floatatom 135 232 0 0 0 0 - - -;
#X obj 135 264 outlet;
#X connect 0 0 1 0;
#X connect 1 0 7 0;
#X connect 3 0 4 0;
#X connect 4 0 5 0;
#X connect 4 0 8 0;
#X connect 5 0 4 1;
#X connect 6 0 4 1;
#X connect 7 0 3 0;
#X connect 7 1 6 0;
#X connect 8 0 9 0;
