#N canvas 541 125 921 932 10;
#X declare -lib maxlib;
#X obj 149 38 adc~;
#X obj 199 464 dac~;
#X obj -11 107 -~;
#X obj 142 274 +~;
#X text 160 69 error;
#X obj 94 155 -~;
#X obj 94 215 *~;
#X obj 255 207 *~;
#X obj 318 185 *~;
#X floatatom 253 35 5 0 0 0 - - -;
#X obj 253 132 +~;
#X obj 316 117 -~;
#X obj 424 77 vsl 15 128 0.001 1 1 0 empty empty empty 0 -9 0 10 -262144
-1 -1 3700 1;
#X obj 476 77 vsl 15 128 0.0001 0.1 1 0 empty empty empty 0 -9 0 10
-262144 -1 -1 7300 1;
#X obj 451 77 vsl 15 128 1e-06 0.1 1 0 empty empty empty 0 -9 0 10
-262144 -1 -1 500 1;
#X text 244 69 integral;
#X obj -12 73 +~ 0;
#X obj 269 7 delread~ integral1 44;
#X obj 332 32 delread~ previous-error1 44;
#X obj -12 30 delread~ output1 44;
#X obj 253 88 +~;
#X text 417 211 Kp;
#X text 450 214 Ki;
#X text 481 207 Kd;
#X obj 246 321 hip~;
#X obj 334 274 vsl 15 128 0 1000 0 0 empty empty empty 0 -9 0 10 -262144
-1 -1 812 1;
#X obj 254 159 hip~ 2;
#X obj 247 183 lop~ 1000;
#X text -183 209 Todo: allow setting of dt (0.01) allow setting of
delay dt 44;
#X obj -133 348 s dt;
#X obj -133 289 loadbang;
#X msg -133 319 0.01;
#X obj -133 261 bng 15 250 50 0 empty empty empty 17 7 0 10 -262144
-1 -1;
#X obj -75 289 loadbang;
#X obj -75 261 bng 15 250 50 0 empty empty empty 17 7 0 10 -262144
-1 -1;
#X msg -75 319 44;
#X obj -75 348 s dtf;
#X obj -4 312 * 44100;
#X obj -4 286 r dt;
#X obj -169 246 vsl 15 64 0.001 0.1 1 0 empty empty empty 0 -9 0 10
-262144 -1 -1 3026 1;
#X obj 53 92 r dt;
#X obj -11 136 *~;
#X obj 141 154 r dt;
#X obj 95 181 /~;
#X floatatom -176 346 5 0 0 0 - - -;
#X msg 490 328;
#X floatatom -30 349 5 0 0 0 - - -;
#X obj 364 123 r dt;
#X obj 317 148 /~;
#X obj -13 5 r dtf;
#X obj 190 -2 r dtf;
#X obj 454 -4 r dtf;
#X obj 167 240 delwrite~ integral1 1000;
#X obj -191 136 delwrite~ previous-error1 1000;
#X obj 21 355 delwrite~ output1 1000;
#X text -168 1 PID Controller following input audio;
#X obj 511 93 random 127;
#X obj 585 94 random 127;
#X obj 657 94 random 127;
#X obj 524 54 bng 15 250 50 0 empty empty empty 17 7 0 10 -262144 -1
-1;
#X obj 582 54 bng 15 250 50 0 empty empty empty 17 7 0 10 -262144 -1
-1;
#X obj 653 53 bng 15 250 50 0 empty empty empty 17 7 0 10 -262144 -1
-1;
#X obj 589 -2 bng 15 250 50 0 empty empty empty 17 7 0 10 -262144 -1
-1;
#X obj 396 271 vsl 15 128 1e-05 1 1 0 empty empty empty 0 -9 0 10 -262144
-1 -1 12447 1;
#X obj 249 433 *~;
#X obj 225 285 clip~ -2 2;
#X obj 454 300 import maxlib;
#X obj 511 119 maxlib/scale 0 127 0.001 1 1;
#X obj 511 150 maxlib/scale 0 127 1e-06 0.1 1;
#X obj 512 174 maxlib/scale 0 127 0.001 0.1 1;
#X obj 438 389 maxlib/scale 0 127 1 1000 0;
#X obj 437 363 random 127;
#X obj 436 338 bng 15 250 50 0 empty empty empty 17 7 0 10 -262144
-1 -1;
#X obj -153 433 random 127;
#X obj -154 408 bng 15 250 50 0 empty empty empty 17 7 0 10 -262144
-1 -1;
#X obj -152 459 maxlib/scale 0 127 0.001 0.1 1;
#X obj -151 377 r everything;
#X obj -170 85 s everything;
#X obj -168 54 bng 15 250 50 0 empty empty empty 17 7 0 10 -262144
-1 -1;
#X obj 433 313 r everything;
#X obj 529 9 r everything;
#X obj -45 552 hsl 32 15 0 127 0 0 empty empty empty -2 -8 0 10 -262144
-1 -1 2465 1;
#X obj -43 581 tgl 15 0 empty empty empty 17 7 0 10 -262144 -1 -1 0
1;
#X obj -121 407 r everything;
#X obj -43 603 tgl 15 0 empty empty empty 17 7 0 10 -262144 -1 -1 0
1;
#X obj -1 552 hsl 32 15 0 127 0 0 empty empty empty -2 -8 0 10 -262144
-1 -1 0 1;
#X obj 1 581 tgl 15 0 empty empty empty 17 7 0 10 -262144 -1 -1 0 1
;
#X obj 1 603 tgl 15 0 empty empty empty 17 7 0 10 -262144 -1 -1 0 1
;
#X obj 41 552 hsl 32 15 0 127 0 0 empty empty empty -2 -8 0 10 -262144
-1 -1 0 1;
#X obj 43 581 tgl 15 0 empty empty empty 17 7 0 10 -262144 -1 -1 0
1;
#X obj 43 603 tgl 15 0 empty empty empty 17 7 0 10 -262144 -1 -1 0
1;
#X obj 85 552 hsl 32 15 0 127 0 0 empty empty empty -2 -8 0 10 -262144
-1 -1 0 1;
#X obj 87 581 tgl 15 0 empty empty empty 17 7 0 10 -262144 -1 -1 0
1;
#X obj 87 603 tgl 15 0 empty empty empty 17 7 0 10 -262144 -1 -1 0
1;
#X obj 126 552 hsl 32 15 0 127 0 0 empty empty empty -2 -8 0 10 -262144
-1 -1 0 1;
#X obj 128 581 tgl 15 0 empty empty empty 17 7 0 10 -262144 -1 -1 0
1;
#X obj 128 603 tgl 15 0 empty empty empty 17 7 0 10 -262144 -1 -1 0
1;
#X obj 170 552 hsl 32 15 0 127 0 0 empty empty empty -2 -8 0 10 -262144
-1 -1 0 1;
#X obj 172 581 tgl 15 0 empty empty empty 17 7 0 10 -262144 -1 -1 0
1;
#X obj 172 603 tgl 15 0 empty empty empty 17 7 0 10 -262144 -1 -1 0
1;
#X obj 212 552 hsl 32 15 0 127 0 0 empty empty empty -2 -8 0 10 -262144
-1 -1 0 1;
#X obj 214 581 tgl 15 0 empty empty empty 17 7 0 10 -262144 -1 -1 0
1;
#X obj 214 603 tgl 15 0 empty empty empty 17 7 0 10 -262144 -1 -1 0
1;
#X obj 256 552 hsl 32 15 0 127 0 0 empty empty empty -2 -8 0 10 -262144
-1 -1 0 1;
#X obj 258 581 tgl 15 0 empty empty empty 17 7 0 10 -262144 -1 -1 0
1;
#X obj 258 603 tgl 15 0 empty empty empty 17 7 0 10 -262144 -1 -1 0
1;
#X obj -48 625 hsl 32 15 0 127 0 0 empty empty empty -2 -8 0 10 -262144
-1 -1 0 1;
#X obj -4 625 hsl 32 15 0 127 0 0 empty empty empty -2 -8 0 10 -262144
-1 -1 0 1;
#X obj 38 625 hsl 32 15 0 127 0 0 empty empty empty -2 -8 0 10 -262144
-1 -1 0 1;
#X obj 82 625 hsl 32 15 0 127 0 0 empty empty empty -2 -8 0 10 -262144
-1 -1 0 1;
#X obj 123 625 hsl 32 15 0 127 0 0 empty empty empty -2 -8 0 10 -262144
-1 -1 0 1;
#X obj 167 625 hsl 32 15 0 127 0 0 empty empty empty -2 -8 0 10 -262144
-1 -1 0 1;
#X obj 209 625 hsl 32 15 0 127 0 0 empty empty empty -2 -8 0 10 -262144
-1 -1 0 1;
#X obj 253 625 hsl 32 15 0 127 0 0 empty empty empty -2 -8 0 10 -262144
-1 -1 0 1;
#X obj -48 647 hsl 32 15 0 127 0 0 empty empty empty -2 -8 0 10 -262144
-1 -1 0 1;
#X obj -4 647 hsl 32 15 0 127 0 0 empty empty empty -2 -8 0 10 -262144
-1 -1 0 1;
#X obj 38 647 hsl 32 15 0 127 0 0 empty empty empty -2 -8 0 10 -262144
-1 -1 0 1;
#X obj 82 647 hsl 32 15 0 127 0 0 empty empty empty -2 -8 0 10 -262144
-1 -1 0 1;
#X obj 123 647 hsl 32 15 0 127 0 0 empty empty empty -2 -8 0 10 -262144
-1 -1 0 1;
#X obj 167 647 hsl 32 15 0 127 0 0 empty empty empty -2 -8 0 10 -262144
-1 -1 0 1;
#X obj 209 647 hsl 32 15 0 127 0 0 empty empty empty -2 -8 0 10 -262144
-1 -1 0 1;
#X obj 253 647 hsl 32 15 0 127 0 0 empty empty empty -2 -8 0 10 -262144
-1 -1 0 1;
#X obj -49 669 hsl 32 15 0 127 0 0 empty empty empty -2 -8 0 10 -262144
-1 -1 0 1;
#X obj -5 669 hsl 32 15 0 127 0 0 empty empty empty -2 -8 0 10 -262144
-1 -1 0 1;
#X obj 37 669 hsl 32 15 0 127 0 0 empty empty empty -2 -8 0 10 -262144
-1 -1 0 1;
#X obj 81 669 hsl 32 15 0 127 0 0 empty empty empty -2 -8 0 10 -262144
-1 -1 0 1;
#X obj 122 669 hsl 32 15 0 127 0 0 empty empty empty -2 -8 0 10 -262144
-1 -1 0 1;
#X obj 166 669 hsl 32 15 0 127 0 0 empty empty empty -2 -8 0 10 -262144
-1 -1 0 1;
#X obj 208 669 hsl 32 15 0 127 0 0 empty empty empty -2 -8 0 10 -262144
-1 -1 0 1;
#X obj 252 669 hsl 32 15 0 127 0 0 empty empty empty -2 -8 0 10 -262144
-1 -1 0 1;
#X text -45 526 Beringer Interface;
#X obj -110 592 s amp;
#X obj 372 216 r amp;
#X obj 395 499 midiin;
#X obj 401 540 ctlin;
#X floatatom 396 577 5 0 0 0 - - -;
#X floatatom 435 578 5 0 0 0 - - -;
#X floatatom 472 578 5 0 0 0 - - -;
#X floatatom 390 524 5 0 0 0 - - -;
#X floatatom 439 524 5 0 0 0 - - -;
#X obj -96 504 ctlin 1;
#X floatatom -96 528 5 0 0 0 - - -;
#X obj 396 244 maxlib/scale 0 127 1e-05 1 0;
#X obj -84 698 beringer;
#X obj -84 904 s amp;
#X connect 0 0 2 1;
#X connect 2 0 5 0;
#X connect 2 0 11 0;
#X connect 2 0 41 0;
#X connect 2 0 53 0;
#X connect 3 0 65 0;
#X connect 5 0 43 0;
#X connect 6 0 3 0;
#X connect 7 0 3 1;
#X connect 8 0 3 1;
#X connect 9 0 20 0;
#X connect 10 0 26 0;
#X connect 11 0 48 0;
#X connect 12 0 6 1;
#X connect 13 0 8 1;
#X connect 14 0 7 1;
#X connect 16 0 2 0;
#X connect 16 0 5 1;
#X connect 17 0 20 1;
#X connect 18 0 11 1;
#X connect 19 0 16 0;
#X connect 20 0 10 0;
#X connect 24 0 54 0;
#X connect 24 0 64 0;
#X connect 25 0 24 1;
#X connect 25 0 26 1;
#X connect 26 0 27 0;
#X connect 27 0 7 0;
#X connect 27 0 52 0;
#X connect 30 0 31 0;
#X connect 31 0 29 0;
#X connect 32 0 30 0;
#X connect 33 0 35 0;
#X connect 34 0 33 0;
#X connect 35 0 36 0;
#X connect 37 0 36 0;
#X connect 37 0 46 0;
#X connect 38 0 37 0;
#X connect 39 0 29 0;
#X connect 39 0 44 0;
#X connect 40 0 41 1;
#X connect 41 0 10 1;
#X connect 42 0 43 1;
#X connect 43 0 6 0;
#X connect 47 0 48 1;
#X connect 48 0 8 0;
#X connect 49 0 19 0;
#X connect 50 0 17 0;
#X connect 51 0 18 0;
#X connect 56 0 67 0;
#X connect 57 0 68 0;
#X connect 58 0 69 0;
#X connect 59 0 56 0;
#X connect 60 0 57 0;
#X connect 61 0 58 0;
#X connect 62 0 59 0;
#X connect 62 0 60 0;
#X connect 62 0 61 0;
#X connect 63 0 64 1;
#X connect 64 0 1 0;
#X connect 65 0 24 0;
#X connect 67 0 12 0;
#X connect 68 0 14 0;
#X connect 69 0 13 0;
#X connect 70 0 25 0;
#X connect 71 0 70 0;
#X connect 72 0 71 0;
#X connect 73 0 75 0;
#X connect 74 0 73 0;
#X connect 75 0 39 0;
#X connect 76 0 74 0;
#X connect 78 0 77 0;
#X connect 79 0 72 0;
#X connect 80 0 62 0;
#X connect 81 0 131 0;
#X connect 132 0 142 0;
#X connect 133 0 138 0;
#X connect 133 1 139 0;
#X connect 134 0 135 0;
#X connect 134 1 136 0;
#X connect 134 2 137 0;
#X connect 140 0 141 0;
#X connect 141 0 131 0;
#X connect 141 0 81 0;
#X connect 142 0 63 0;
#X connect 143 0 144 0;
