#N canvas 1 96 450 300 10;
#X obj 153 29 inlet;
#X obj 152 122 phasor;
#X obj 153 92 arraysize \$1;
#X obj 167 150 t f f;
#X obj 154 195 tabread \$1;
#X obj 225 257 tabwrite \$1;
#X obj 153 257 outlet;
#X obj 274 27 inlet;
#X symbolatom 73 122 10 0 0 0 - - -;
#X connect 0 0 2 0;
#X connect 1 0 3 0;
#X connect 2 0 1 0;
#X connect 2 0 8 0;
#X connect 3 0 4 0;
#X connect 3 1 5 1;
#X connect 4 0 6 0;
#X connect 7 0 5 0;
