#N canvas 613 286 495 416 10;
#X floatatom 264 156 5 0 0 0 - - -;
#X obj 170 -26 rms~;
#X obj 239 -19 rms~;
#X obj 182 16 /;
#X obj 266 240 max;
#X floatatom 261 276 5 0 0 0 - - -;
#X floatatom 325 280 5 0 0 0 - - -;
#X obj 326 240 min;
#X obj 399 258 osc~;
#X obj 390 294 dac~;
#X obj 204 209 +~;
#X obj 198 247 lop~ 10;
#X obj 192 277 *~ 440;
#X obj 192 -69 adc~ 3 4;
#X floatatom 252 43 5 0 0 0 - - -;
#X connect 0 0 4 0;
#X connect 0 0 7 0;
#X connect 0 0 10 0;
#X connect 0 0 10 1;
#X connect 1 0 3 0;
#X connect 2 0 3 1;
#X connect 2 0 14 0;
#X connect 3 0 0 0;
#X connect 4 0 5 0;
#X connect 5 0 4 1;
#X connect 6 0 7 1;
#X connect 7 0 6 0;
#X connect 8 0 9 0;
#X connect 8 0 9 1;
#X connect 10 0 11 0;
#X connect 11 0 12 0;
#X connect 12 0 8 0;
#X connect 13 0 1 0;
#X connect 13 1 2 0;
