#N canvas 418 566 450 300 10;
#X obj 30 37 inlet~;
#X obj 140 117 / 100;
#X obj 216 118 / 100;
#X obj 29 105 phasor~;
#X text 21 61 frequency;
#X text 136 60 SLOPES (percent);
#X obj 118 147 *~;
#X obj 29 139 *~ -1;
#X obj 29 164 +~ 1;
#X obj 194 166 *~;
#X obj 118 199 min~;
#X text 146 77 up;
#X text 219 78 down;
#X obj 118 233 outlet~;
#X obj 150 28 inlet;
#X obj 200 30 inlet;
#X connect 0 0 3 0;
#X connect 1 0 6 1;
#X connect 2 0 9 1;
#X connect 3 0 6 0;
#X connect 3 0 7 0;
#X connect 6 0 10 0;
#X connect 7 0 8 0;
#X connect 8 0 9 0;
#X connect 9 0 10 1;
#X connect 10 0 13 0;
#X connect 14 0 1 0;
#X connect 15 0 2 0;
